<svg width="299" height="295" viewBox="0 0 299 295" fill="none" xmlns="http://www.w3.org/2000/svg">
<path d="M72.0701 74.4H133.83L134.28 54.97H51.0601V205.39H132.18V186.49H72.0701V74.4Z" fill="white"/>
<path d="M145.52 98.42L167.51 120.41H100.38V140.41H169.43L145.52 164.31L159.67 178.45L202.51 135.61V127.12L159.67 84.28L145.52 98.42Z" fill="white"/>
<path d="M287.91 49.31L247.8 9.75999L247.54 9.48999H247.1H227.1H5.2998V251.3L40.0098 286.19H288.31L287.91 49.32V49.31ZM267.93 57.69L268.26 253.03L247.11 231.88V37.16L267.93 57.69ZM25.2998 29.48H227.11V231.29H25.2998V29.48ZM33.5098 251.29H238.23L253.12 266.18H48.3198L33.5098 251.29Z" fill="white"/>
</svg>
