<svg width="177" height="46" viewBox="0 0 177 46" fill="none" xmlns="http://www.w3.org/2000/svg">
<g clip-path="url(#clip0_155_1251)">
<path d="M20.9761 29.2683H11.0609V10.7384H18.0757V14.6009H21.3227V7.52733H7.59668V32.393H20.9761V29.2683Z" fill="black"/>
<path d="M48.2538 32.393H51.5455V10.6952H56.6548V7.52733H42.8857V10.6952H48.2538V32.393Z" fill="black"/>
<path d="M71.8472 32.393L76.3064 7.52733H71.9334L68.8589 28.8346H67.6035L64.4858 7.52733H60.3301L64.7462 32.393H71.8472Z" fill="black"/>
<path d="M28.8152 21.3089H30.1999L36.2611 32.4179H40.591L34.5729 21.3089H38.3838V7.55226H25.5234V32.4179H28.8567L28.8136 21.3089H28.8152ZM28.8152 10.6337H34.9195V18.1843H28.8152V10.6337Z" fill="black"/>
<path d="M94.1201 32.5608H107.919V29.1587H97.4285V19.2097H107.919V16.0685H97.4285V10.6586H107.919V7.51736L94.1201 7.56057V32.5608Z" fill="black"/>
<path d="M112.406 19.1665L122.723 25.1432V29.2883H115.715V25.4058H112.406V32.5608L126.119 32.5176V21.9587L115.889 16.0236V10.7899H122.942V14.6724H126.205V7.56057H112.406V19.1665Z" fill="black"/>
<path d="M133.512 10.7899H143.755L143.828 7.56057H130.029V32.5608H143.482V29.4196H133.512V10.7899Z" fill="black"/>
<path d="M151.83 14.7821L155.475 18.4352H137.825V21.7593H155.793L151.83 25.7332L154.175 28.0833L161.279 20.9632V19.5521L154.175 12.432L151.83 14.7821Z" fill="black"/>
<path d="M170.168 0H86.8135V3.35398L83.3542 0.00332406H0V40.1929L5.39123 45.508L90.1882 46L90.1832 43.4588L92.2047 45.5047L177.002 45.9967L176.935 6.6182L170.168 0ZM170.168 36.8655V4.59884L173.62 8.01098L173.675 40.4771L170.168 36.9619V36.8655ZM90.1301 12.0397V3.32406H166.851V36.8655H90.1716L90.1301 12.0414V12.0397ZM86.8135 12.068V40.1895H86.8599V40.4804L83.3526 36.9652V4.60216L86.8052 8.01431L86.8118 12.0663L86.8135 12.068ZM80.0376 3.32738V36.8688H3.31666V3.32738H80.0376ZM4.80749 40.1929H81.8833L84.3277 42.6427L6.78256 42.1923L4.80749 40.1929ZM91.6193 40.1895H168.695L171.139 42.6394L93.5944 42.189L91.6193 40.1895Z" fill="black"/>
</g>
<defs>
<clipPath id="clip0_155_1251">
<rect width="177" height="46" fill="white"/>
</clipPath>
</defs>
</svg>
