<svg width="26" height="23" viewBox="0 0 26 23" fill="none" xmlns="http://www.w3.org/2000/svg">
<path d="M17.0625 0.0117188C21.9282 0.252787 25.7979 4.18478 25.7979 9L25.7861 9.46289C25.5396 14.2182 21.5158 17.9998 16.5889 18L16.1152 17.9883C13.6777 17.8676 11.4903 16.8204 9.91406 15.2002L1.5791 22.8682L0.901367 22.1318L9.25781 14.4443C8.08038 12.9324 7.37988 11.0466 7.37988 9C7.37988 4.02944 11.5029 0 16.5889 0L17.0625 0.0117188ZM16.5889 1C12.0335 1 8.37988 4.60323 8.37988 9C8.37988 13.3968 12.0335 17 16.5889 17C21.1441 16.9998 24.7979 13.3967 24.7979 9C24.7979 4.60333 21.1441 1.00016 16.5889 1Z" fill="#333333"/>
</svg>
